<svg xmlns="http://www.w3.org/2000/svg" viewBox="0 0 64 64" role="img" aria-label="Polygon"><circle cx="32" cy="32" r="32" fill="#8247E5"/><path fill="#fff" d="M42.7 23.7c-1.5-.9-3.4-.9-5 0l-6.2 3.6-4.2-2.4c-1.5-.9-3.4-.9-5 0l-6.4 3.7c-1.5.9-2.5 2.5-2.5 4.3v7.4c0 1.8.9 3.4 2.5 4.3l6.4 3.7c1.5.9 3.4.9 5 0l6.2-3.6 4.2 2.4c1.5.9 3.4.9 5 0l6.4-3.7c1.5-.9 2.5-2.5 2.5-4.3v-7.4c0-1.8-.9-3.4-2.5-4.3l-6.4-3.7Zm-17.9 19-5.7-3.3v-6.6l5.7-3.3 5.7 3.3v6.6l-5.7 3.3Zm21.1-3.9-5.7 3.3-5.7-3.3v-6.6l5.7-3.3 5.7 3.3v6.6Z"/></svg>
